<svg id="Layer_1" data-name="Layer 1" xmlns="http://www.w3.org/2000/svg" viewBox="0 0 200 200"><defs><style>.cls-1{fill:#586a88;}.cls-2{fill:#051c4a;}.cls-3{fill:#93a3c0;}.cls-4{fill:#f4f6f9;}.cls-5{fill:#d95140;}</style></defs><title>logo-roulette</title><circle class="cls-1" cx="100" cy="100" r="59.5"/><path class="cls-2" d="M100,41a59,59,0,1,1-59,59,59.07,59.07,0,0,1,59-59m0-1a60,60,0,1,0,60,60,60,60,0,0,0-60-60Z"/><path class="cls-3" d="M100,65a35,35,0,1,0,35,35A35,35,0,0,0,100,65Zm0,60a25,25,0,1,1,25-25A25,25,0,0,1,100,125Z"/><path class="cls-2" d="M100,50a50,50,0,1,0,50,50A50,50,0,0,0,100,50Zm0,85a35,35,0,1,1,35-35A35,35,0,0,1,100,135Z"/><circle class="cls-2" cx="100" cy="100" r="25"/><path class="cls-4" d="M100,52a48,48,0,1,1-48,48,48.05,48.05,0,0,1,48-48m0-2a50,50,0,1,0,50,50,50,50,0,0,0-50-50Z"/><path class="cls-5" d="M100,65V52a48.09,48.09,0,0,0-12.43,1.64l3.36,12.55A35.19,35.19,0,0,1,100,65Z"/><path class="cls-5" d="M82.5,69.69,76,58.46a48,48,0,0,0-9.94,7.63l9.18,9.17A35.2,35.2,0,0,1,82.5,69.69Z"/><path class="cls-5" d="M117.37,69.62l6.46-11.26a47.4,47.4,0,0,0-11.59-4.77l-3.3,12.57A34.47,34.47,0,0,1,117.37,69.62Z"/><path class="cls-5" d="M130.26,82.41l11.21-6.54A48,48,0,0,0,133.8,66l-9.14,9.2A35.28,35.28,0,0,1,130.26,82.41Z"/><path class="cls-5" d="M135,99.89l13,0a48,48,0,0,0-1.68-12.42l-12.54,3.39A35.2,35.2,0,0,1,135,99.89Z"/><path class="cls-5" d="M69.67,82.54,58.43,76a47.49,47.49,0,0,0-4.8,11.57L66.19,91A34.29,34.29,0,0,1,69.67,82.54Z"/><path class="cls-5" d="M117.56,130.27l6.52,11.22a48.41,48.41,0,0,0,9.93-7.65l-9.2-9.16A34.63,34.63,0,0,1,117.56,130.27Z"/><path class="cls-5" d="M130.36,117.4l11.26,6.47a47.74,47.74,0,0,0,4.78-11.58L133.83,109A34.33,34.33,0,0,1,130.36,117.4Z"/><path class="cls-5" d="M100.07,135l0,13a48.1,48.1,0,0,0,12.43-1.67l-3.39-12.54A35.19,35.19,0,0,1,100.07,135Z"/><path class="cls-5" d="M69.71,117.53,58.48,124A48.74,48.74,0,0,0,66.13,134l9.16-9.19A35.25,35.25,0,0,1,69.71,117.53Z"/><path class="cls-5" d="M82.57,130.34l-6.49,11.25a47.54,47.54,0,0,0,11.58,4.79L91,133.82A34.45,34.45,0,0,1,82.57,130.34Z"/><path class="cls-5" d="M65,100H52a48.1,48.1,0,0,0,1.66,12.43l12.54-3.37A35.25,35.25,0,0,1,65,100Z"/></svg>