<svg id="Layer_1" data-name="Layer 1" xmlns="http://www.w3.org/2000/svg" viewBox="0 0 200 200"><defs><style>.cls-1{fill:#f4f6f9;}.cls-2{fill:#051c4a;}</style></defs><title>logo-words</title><path class="cls-1" d="M41.44,135.74a.48.48,0,0,1-.39-.18.49.49,0,0,1-.1-.42l3.63-17.07H38.69L35,135.35a.49.49,0,0,1-.49.39H27.76a.5.5,0,0,1-.39-.18.53.53,0,0,1-.1-.42l6.61-31a9.64,9.64,0,0,0-3.75,3.34,11,11,0,0,0-1.63,6.07,5.46,5.46,0,0,0,.28,2.2c.34.72.38.85.38,1a.51.51,0,0,1-.5.5,6.24,6.24,0,0,1-4.11-1.18,4.83,4.83,0,0,1-1.42-3.88A9.4,9.4,0,0,1,25.72,106a18.77,18.77,0,0,1,6.49-4.73,18.94,18.94,0,0,1,7.91-1.81c.45,0,1.1,0,1.92.1a.52.52,0,0,1,.36.19.51.51,0,0,1,.09.41l-2.88,13.4H45.5L48.42,100a.5.5,0,0,1,.49-.4h6.77a.47.47,0,0,1,.38.19.46.46,0,0,1,.1.42l-7.47,35.15a.49.49,0,0,1-.49.39Z"/><path class="cls-2" d="M40.12,100c.44,0,1.07,0,1.88.09l-3,14H45.9l3-14h6.77L48.2,135.24H41.44l3.76-17.67H38.29l-3.76,17.67H27.76l6.82-31.95a10.41,10.41,0,0,0-4.87,3.95A11.38,11.38,0,0,0,28,113.58a6.13,6.13,0,0,0,.33,2.42,4.9,4.9,0,0,1,.33.78,5.77,5.77,0,0,1-3.79-1.06,4.37,4.37,0,0,1-1.24-3.5,8.88,8.88,0,0,1,2.46-5.85,18.44,18.44,0,0,1,6.32-4.61A18.48,18.48,0,0,1,40.12,100m0-1A19.46,19.46,0,0,0,32,100.85a19.41,19.41,0,0,0-6.66,4.86,9.91,9.91,0,0,0-2.71,6.51,5.3,5.3,0,0,0,1.59,4.26,6.72,6.72,0,0,0,4.44,1.3,1,1,0,0,0,1-1,2.89,2.89,0,0,0-.43-1.21,5.19,5.19,0,0,1-.23-2,10.44,10.44,0,0,1,1.55-5.8,9.1,9.1,0,0,1,2.6-2.61L26.78,135a1,1,0,0,0,.21.83,1,1,0,0,0,.77.37h6.77a1,1,0,0,0,1-.79l3.59-16.88H44L40.46,135a1,1,0,0,0,.2.83,1,1,0,0,0,.78.37H48.2a1,1,0,0,0,1-.79l7.47-35.15a1,1,0,0,0-.2-.84,1,1,0,0,0-.77-.37H48.91a1,1,0,0,0-1,.79L45.09,113.1H40.23L43,100.3a1,1,0,0,0-.18-.8,1,1,0,0,0-.72-.4c-.86-.07-1.49-.1-2-.1Z"/><path class="cls-1" d="M95.67,136a4.73,4.73,0,0,1-3.94-1.65,6.53,6.53,0,0,1-1.26-4.16v0A33.1,33.1,0,0,1,87,132.7a7.35,7.35,0,0,1-3.14,2.54,10.8,10.8,0,0,1-4.12.79c-2.66,0-4.52-.67-5.54-2a7.59,7.59,0,0,1-1.49-4.77,5.38,5.38,0,0,1,1.15-3.54,3.48,3.48,0,0,1,2.73-1.43c2.56,0,3,1.55,3,2.48a2.49,2.49,0,0,1-.82,1.84,2.7,2.7,0,0,1-1.94.77,2.84,2.84,0,0,1-.69-.08,2.92,2.92,0,0,0,.51,1.28,1.88,1.88,0,0,0,1.64.71,2.11,2.11,0,0,0,1.87-.75,5.58,5.58,0,0,0,.59-3.12,27.18,27.18,0,0,0-.28-3.5c-.26-2.56-.49-5.18-.66-7.82a14.55,14.55,0,0,1-7,5.4,21,21,0,0,1-1.86,7.41,13.31,13.31,0,0,1-4.13,5.17,9.47,9.47,0,0,1-5.63,1.83A8.53,8.53,0,0,1,55.34,134c-1.45-1.28-2.19-3.31-2.19-6a23.66,23.66,0,0,1,1.3-7.28,17.13,17.13,0,0,1,4.26-6.92,10.48,10.48,0,0,1,7.68-3c4.13,0,6.32,2.45,6.5,7.3,2-.44,4.27-2.84,6.74-7.15a.5.5,0,0,1,.37-.24l7-.94H87a.47.47,0,0,1,.32.12.5.5,0,0,1,.18.36c.15,4,.42,8.37.8,13,.16,1.93.23,3.28.23,4.13,0,.26,0,.52,0,.77.72-.46,1.53-1,2.41-1.73l.08,0,2.62-12.26h-.93a.49.49,0,0,1-.39-.19.46.46,0,0,1-.1-.41l.37-1.88a.5.5,0,0,1,.49-.4h1.15l1.32-6.09a.51.51,0,0,1,.42-.39l7-.94H103a.5.5,0,0,1,.37.17.49.49,0,0,1,.11.45c-.18.77-.43,1.83-.46,2.07-.21.84-.54,2.38-1,4.74h2.21a.51.51,0,0,1,.49.6l-.38,1.88a.5.5,0,0,1-.49.4h-2.41l-2.93,13.7a7.45,7.45,0,0,0-.22,1.54c0,.86.32,1.19,1.14,1.19a3.28,3.28,0,0,0,1-.11l.18,0a.49.49,0,0,1,.34.14.51.51,0,0,1,.13.52A8,8,0,0,1,98.74,135,5.08,5.08,0,0,1,95.67,136Zm-28.9-21.34c-.85,0-1.7.67-2.54,2A19.53,19.53,0,0,0,62,122a20.82,20.82,0,0,0-.85,5.44,5.39,5.39,0,0,0,.43,2.75,1.63,1.63,0,0,0,1.46.55c1,0,1.9-.85,2.8-2.53a19.76,19.76,0,0,0,2-6.41,2.55,2.55,0,0,1-1.09-2.4,3,3,0,0,1,1.3-2.73,3.66,3.66,0,0,0-.39-1.55A.91.91,0,0,0,66.77,114.69Z"/><path class="cls-2" d="M103,104.32c-.28,1.19-.44,1.9-.47,2.12q-.33,1.32-1.13,5.31h2.82l-.38,1.88H101l-3,14.1a7.57,7.57,0,0,0-.24,1.64,1.47,1.47,0,0,0,1.64,1.69,4,4,0,0,0,1.23-.14,7.67,7.67,0,0,1-2.21,3.67,4.61,4.61,0,0,1-2.77.94,4.26,4.26,0,0,1-3.55-1.46A6,6,0,0,1,91,130.22,11.81,11.81,0,0,1,91,129a31.42,31.42,0,0,1-4.34,3.29,6.67,6.67,0,0,1-3,2.44,10.11,10.11,0,0,1-3.92.76q-3.77,0-5.14-1.79a7,7,0,0,1-1.39-4.46,4.86,4.86,0,0,1,1-3.22,3,3,0,0,1,2.35-1.25c1.63,0,2.45.66,2.45,2a2,2,0,0,1-.66,1.48,2.23,2.23,0,0,1-1.6.63c-.66,0-1.08-.2-1.27-.61a4.34,4.34,0,0,0,.68,2.61,2.4,2.4,0,0,0,2,.91,2.62,2.62,0,0,0,2.28-1,6.25,6.25,0,0,0,.68-3.41,30.13,30.13,0,0,0-.28-3.57q-.48-4.52-.76-9.21-3.33,5.13-7.89,6.49a20.6,20.6,0,0,1-1.83,7.56,12.82,12.82,0,0,1-4,5,9,9,0,0,1-5.34,1.74,8,8,0,0,1-5.49-1.78q-2-1.78-2-5.64a23.21,23.21,0,0,1,1.27-7.12,16.59,16.59,0,0,1,4.14-6.72,9.94,9.94,0,0,1,7.33-2.84q6,0,6,7.37,3.48-.18,7.66-7.47l7-.94q.24,6,.8,13c.15,1.88.23,3.24.23,4.09a9.4,9.4,0,0,1-.14,1.73,27.59,27.59,0,0,0,3.34-2.3h.19l2.82-13.2H92.71l.37-1.88h1.55L96,105.26l7-.94M63.05,131.2q1.74,0,3.25-2.79a20.44,20.44,0,0,0,2.06-6.94c-.75-.28-1.13-1-1.13-2.11a2.41,2.41,0,0,1,1.32-2.44,4.68,4.68,0,0,0-.49-2.12,1.45,1.45,0,0,0-1.29-.61c-1,0-2,.75-3,2.23a20.3,20.3,0,0,0-2.28,5.41,21.77,21.77,0,0,0-.86,5.57,6.11,6.11,0,0,0,.51,3,2.11,2.11,0,0,0,1.88.77m40-27.88h-.14l-7,.94a1,1,0,0,0-.85.78l-1.24,5.7h-.74a1,1,0,0,0-1,.8l-.38,1.88a1,1,0,0,0,1,1.2H93l-2.45,11.46c-.53.42-1,.79-1.52,1.13,0-.87-.09-2.18-.24-4-.37-4.62-.64-9-.79-13a1,1,0,0,0-.36-.72,1,1,0,0,0-.64-.24h-.14l-6.95.94a1,1,0,0,0-.73.49c-2.54,4.41-4.48,6.15-5.85,6.73-.47-5.86-4-7.13-7-7.13a11,11,0,0,0-8,3.13A17.79,17.79,0,0,0,54,120.58,24.26,24.26,0,0,0,52.65,128c0,2.85.8,5,2.36,6.39a9,9,0,0,0,6.16,2,10,10,0,0,0,5.92-1.92,13.82,13.82,0,0,0,4.29-5.37,21.28,21.28,0,0,0,1.88-7.25,14.64,14.64,0,0,0,6.13-4.45c.16,2.22.35,4.41.57,6.54a26.91,26.91,0,0,1,.28,3.46,5.11,5.11,0,0,1-.5,2.83c-.09.14-.38.54-1.46.54A1.37,1.37,0,0,1,77,130.3a2.2,2.2,0,0,1-.23-.4h0a3.26,3.26,0,0,0,2.29-.91,3,3,0,0,0,1-2.2c0-.9-.34-3-3.45-3a4,4,0,0,0-3.12,1.61,5.91,5.91,0,0,0-1.26,3.86,8,8,0,0,0,1.6,5.07c1.11,1.44,3.11,2.18,5.93,2.18a11.22,11.22,0,0,0,4.31-.83,7.67,7.67,0,0,0,3.3-2.63c.91-.58,1.79-1.2,2.63-1.86a6.61,6.61,0,0,0,1.31,3.48,5.22,5.22,0,0,0,4.34,1.84A5.56,5.56,0,0,0,99,135.39a8.42,8.42,0,0,0,2.56-4.14,1,1,0,0,0-.25-1.05,1,1,0,0,0-.69-.28,1,1,0,0,0-.35.06,2.88,2.88,0,0,1-.88.08c-.51,0-.64-.08-.64-.69A7,7,0,0,1,99,128l2.84-13.32h2a1,1,0,0,0,1-.81l.38-1.88a1,1,0,0,0-.21-.83,1,1,0,0,0-.77-.36h-1.6c.41-2,.7-3.35.88-4.07a.36.36,0,0,1,0-.1c0-.17.17-.85.45-2a1,1,0,0,0-1-1.23ZM63.05,130.2c-.38,0-.86,0-1-.33a4.88,4.88,0,0,1-.35-2.47,20.67,20.67,0,0,1,.83-5.31A19.27,19.27,0,0,1,64.65,117c.51-.81,1.29-1.77,2.12-1.77.35,0,.42.11.45.16a2.55,2.55,0,0,1,.28,1,3.52,3.52,0,0,0-1.27,3,3.17,3.17,0,0,0,1,2.63,18.54,18.54,0,0,1-1.86,5.94c-.55,1-1.42,2.27-2.36,2.27Z"/><path class="cls-1" d="M51.37,165.27c-3.44,0-4.16-2-4.16-3.65a11.39,11.39,0,0,1,.32-2.48c.2-.88.48-2,.87-3.47s.77-2.72,1-3.74a13.27,13.27,0,0,0,.32-2.66c0-1.87-.72-2.7-2.32-2.7a6.44,6.44,0,0,0-1.13.11l-3.69,17.4a.49.49,0,0,1-.49.39H35.3a.5.5,0,0,1-.39-.18.53.53,0,0,1-.1-.42l6.58-30.79a.51.51,0,0,1,.14-.26,9.7,9.7,0,0,0-4,3.64,11.07,11.07,0,0,0-1.5,5.85,5.46,5.46,0,0,0,.28,2.2c.34.72.38.85.38,1a.51.51,0,0,1-.5.5,6.24,6.24,0,0,1-4.11-1.18A4.86,4.86,0,0,1,30.67,141a9.4,9.4,0,0,1,2.59-6.18A18.77,18.77,0,0,1,39.75,130a18.94,18.94,0,0,1,7.91-1.81,15.57,15.57,0,0,1,6.12,1.07,8.63,8.63,0,0,1,3.79,2.93,7.06,7.06,0,0,1,1.26,4,8.93,8.93,0,0,1-1.44,4.68,11.25,11.25,0,0,1-3,3.23,4.06,4.06,0,0,1,1.84,1.58A6.11,6.11,0,0,1,57,149a14.84,14.84,0,0,1-.34,3c-.22,1-.54,2.3-.95,3.81-.25,1-.48,1.91-.7,2.85a10.23,10.23,0,0,0-.32,2.23,3.21,3.21,0,0,0,.43,1.68,2.11,2.11,0,0,0,1.09,1,.48.48,0,0,1,.31.49.5.5,0,0,1-.36.46A18.86,18.86,0,0,1,51.37,165.27Zm-2.28-33.83a.5.5,0,0,1,.23.18.49.49,0,0,1,.08.39L47,143.5a4.8,4.8,0,0,0,2.82-1.15,8.26,8.26,0,0,0,2.28-3,8.5,8.5,0,0,0,.82-3.53,4.49,4.49,0,0,0-1.15-3.21A4.15,4.15,0,0,0,49.09,131.44Zm-3.22.1a14.06,14.06,0,0,0-3.25.8,17.23,17.23,0,0,1,2.58-.68Z"/><path class="cls-2" d="M47.66,128.73a15.1,15.1,0,0,1,5.92,1,8,8,0,0,1,3.57,2.75,6.45,6.45,0,0,1,1.18,3.74A8.46,8.46,0,0,1,57,140.67a10.82,10.82,0,0,1-3.72,3.61A4.17,4.17,0,0,1,55.77,146a5.7,5.7,0,0,1,.73,3,13.63,13.63,0,0,1-.33,2.89c-.22,1-.54,2.28-.94,3.79-.25,1-.49,1.92-.71,2.86a10.73,10.73,0,0,0-.33,2.35,3.75,3.75,0,0,0,.5,1.93A2.58,2.58,0,0,0,56,164a17.94,17.94,0,0,1-4.66.8q-3.66,0-3.66-3.15a11,11,0,0,1,.3-2.37q.32-1.33.87-3.45c.44-1.47.77-2.73,1-3.76a13.54,13.54,0,0,0,.33-2.77q0-3.2-2.82-3.2a6.5,6.5,0,0,0-1.55.19L42.07,164H35.3l6.58-30.79a13.9,13.9,0,0,1,3.42-1,14.57,14.57,0,0,1,2.74-.29,5.89,5.89,0,0,1,.87,0L46.35,144h.37a5.24,5.24,0,0,0,3.39-1.27,8.55,8.55,0,0,0,2.41-3.17,8.93,8.93,0,0,0,.87-3.73,4.64,4.64,0,0,0-5.16-4.94,15.53,15.53,0,0,0-6.68,1.36,10.22,10.22,0,0,0-4.44,3.95,11.53,11.53,0,0,0-1.57,6.11,6.13,6.13,0,0,0,.33,2.42,4.9,4.9,0,0,1,.33.78,5.77,5.77,0,0,1-3.79-1.06,4.37,4.37,0,0,1-1.24-3.5,8.84,8.84,0,0,1,2.47-5.85A18.3,18.3,0,0,1,40,130.49a18.48,18.48,0,0,1,7.71-1.76m0-1a20.53,20.53,0,0,0-14.78,6.71A9.91,9.91,0,0,0,30.17,141a5.27,5.27,0,0,0,1.6,4.26,6.69,6.69,0,0,0,4.43,1.3,1,1,0,0,0,1-1,2.89,2.89,0,0,0-.43-1.21,5.14,5.14,0,0,1-.23-2A10.59,10.59,0,0,1,38,136.72a8.88,8.88,0,0,1,2.74-2.85l-6.39,29.9a1,1,0,0,0,.2.83,1,1,0,0,0,.78.37h6.77a1,1,0,0,0,1-.79l3.62-17.06a5.78,5.78,0,0,1,.71-.05c1.09,0,1.82.37,1.82,2.2a12.3,12.3,0,0,1-.31,2.56c-.21,1-.54,2.24-1,3.68s-.69,2.62-.89,3.52a11.76,11.76,0,0,0-.33,2.59c0,1.55.6,4.15,4.66,4.15a18.93,18.93,0,0,0,4.92-.83A1,1,0,0,0,57,164a1,1,0,0,0-.63-1,1.62,1.62,0,0,1-.84-.74,2.79,2.79,0,0,1-.36-1.43,9.89,9.89,0,0,1,.31-2.12c.21-.9.44-1.86.69-2.84.41-1.51.73-2.8,1-3.83a14.41,14.41,0,0,0,.36-3.1,6.63,6.63,0,0,0-.88-3.5,4.26,4.26,0,0,0-1.36-1.38,11.81,11.81,0,0,0,2.56-2.91,9.38,9.38,0,0,0,1.51-4.94A7.52,7.52,0,0,0,58,132a9.05,9.05,0,0,0-4-3.1,16,16,0,0,0-6.32-1.12Zm-.06,15.18,2.29-10.8h0a3.11,3.11,0,0,1,1.48.86,4,4,0,0,1,1,2.87,8,8,0,0,1-.78,3.32A7.68,7.68,0,0,1,49.47,142a4.5,4.5,0,0,1-1.87.95Z"/><path class="cls-1" d="M165.8,164.76a8,8,0,0,1-5.7-1.95,5.92,5.92,0,0,1-1.25-1.74,8.09,8.09,0,0,1-1.89,1.79,10.23,10.23,0,0,1-5.68,1.9,5.4,5.4,0,0,1-4-1.56,5,5,0,0,1-1.14-1.94,7.75,7.75,0,0,1-1.73,1.6,10.23,10.23,0,0,1-5.68,1.9,5.4,5.4,0,0,1-4-1.56,5.69,5.69,0,0,1-1.47-3.51c-3,3.36-6.55,5.07-10.51,5.07a8.09,8.09,0,0,1-5.74-1.95,5.62,5.62,0,0,1-1.26-1.77,8.37,8.37,0,0,1-1.93,1.82,10.23,10.23,0,0,1-5.68,1.9,5.4,5.4,0,0,1-4-1.56,4.78,4.78,0,0,1-1.11-1.87,8.34,8.34,0,0,1-1.58,1.53,9.41,9.41,0,0,1-5.44,1.9,4.69,4.69,0,0,1-4.92-3.67,8.82,8.82,0,0,1-2.85,2.67,8.11,8.11,0,0,1-3.83,1,5.4,5.4,0,0,1-4-1.56,6.3,6.3,0,0,1-1.53-4.58,16.85,16.85,0,0,1,.39-3.16l1.22-5.78a17.8,17.8,0,0,1-2.81.76,21.61,21.61,0,0,1-1.94,7.27,13.21,13.21,0,0,1-4.15,5.12,9.47,9.47,0,0,1-5.6,1.83,8.5,8.5,0,0,1-5.83-1.91c-1.45-1.28-2.19-3.31-2.19-6a23.11,23.11,0,0,1,1.34-7.26,17.48,17.48,0,0,1,4.35-6.94,10.63,10.63,0,0,1,7.69-3c4.21,0,6.39,2.56,6.5,7.61h0a9.15,9.15,0,0,0,3.3-.76l1.28-6A.5.5,0,0,1,83,140h6.77a.53.53,0,0,1,.39.18.53.53,0,0,1,.1.42l-3.38,16a5.84,5.84,0,0,0-.14,1.21c0,1.43.62,1.43.91,1.43a2.39,2.39,0,0,0,1.88-.93,7.66,7.66,0,0,0,1.4-2.85l3.19-15a.49.49,0,0,1,.49-.39h6.76a.52.52,0,0,1,.39.18.46.46,0,0,1,.1.42l-3.38,16a5.37,5.37,0,0,0-.17,1.4,1.34,1.34,0,0,0,.27,1,1.67,1.67,0,0,0,1.15.28,2.42,2.42,0,0,0,1.9-.95,8,8,0,0,0,1.43-2.83l5-23.5a.5.5,0,0,1,.42-.4l7-.94h.07a.52.52,0,0,1,.37.16.51.51,0,0,1,.12.44l-5.4,25.38a5.37,5.37,0,0,0-.18,1.4,1.34,1.34,0,0,0,.28,1,1.67,1.67,0,0,0,1.15.28,3.07,3.07,0,0,0,2.18-1,5.31,5.31,0,0,0,.94-1.29v-.12a23.73,23.73,0,0,1,1.29-7.29,17,17,0,0,1,4.26-7,10.41,10.41,0,0,1,7.63-3c4.69,0,5.67,2.72,5.67,5a9,9,0,0,1-1.59,5.12A11.79,11.79,0,0,1,128,153.4a13.38,13.38,0,0,1-5.08,1.54c0,.69-.06,1.16-.06,1.42,0,1.74.36,2.47.66,2.78a3.05,3.05,0,0,0,2.22.67,7.34,7.34,0,0,0,4.08-1.1,20.52,20.52,0,0,0,3.78-3.38l2.66-12.47h-.93a.51.51,0,0,1-.39-.19.49.49,0,0,1-.1-.41l.37-1.88a.51.51,0,0,1,.49-.4h1.15l1.33-6.09a.49.49,0,0,1,.42-.39l6.95-.94h.07a.5.5,0,0,1,.49.61L144.66,140h4.76l1.32-6.09a.51.51,0,0,1,.42-.39l7-.94h.07a.48.48,0,0,1,.36.16.53.53,0,0,1,.13.45L157.21,140h2.2a.53.53,0,0,1,.39.18.53.53,0,0,1,.1.42l-.38,1.88a.49.49,0,0,1-.49.4h-2.41l-2.92,13.7a5,5,0,0,0-.18,1.4,1.34,1.34,0,0,0,.28,1,1.66,1.66,0,0,0,1.14.28,3.07,3.07,0,0,0,2.19-1A5.31,5.31,0,0,0,158,157a1.55,1.55,0,0,1,0-.22,23.78,23.78,0,0,1,1.29-7.29,17.21,17.21,0,0,1,4.26-7,10.41,10.41,0,0,1,7.63-3c4.69,0,5.67,2.72,5.67,5a8.91,8.91,0,0,1-1.59,5.12,11.62,11.62,0,0,1-4.17,3.71A13.63,13.63,0,0,1,166,155c0,.44-.05.75-.05.94,0,3.05,1.38,3.4,2.41,3.4a6.17,6.17,0,0,0,2.61-.66,10.86,10.86,0,0,0,2.61-1.7.46.46,0,0,1,.33-.13.42.42,0,0,1,.24.07.48.48,0,0,1,.25.52C173.53,162.28,170.63,164.76,165.8,164.76ZM71.72,143.42c-.85,0-1.72.68-2.59,2A22.77,22.77,0,0,0,66,156.13a5.54,5.54,0,0,0,.43,2.75,1.65,1.65,0,0,0,1.47.55,2.65,2.65,0,0,0,1.88-1.12,11.14,11.14,0,0,0,1.88-3.37,21.83,21.83,0,0,0,1.13-4.44,2.26,2.26,0,0,1-1.21-2.31A3,3,0,0,1,73,145.35a3.54,3.54,0,0,0-.37-1.57C72.56,143.69,72.39,143.42,71.72,143.42Zm69.43,13.14A5.37,5.37,0,0,0,141,158a1.34,1.34,0,0,0,.28,1,1.67,1.67,0,0,0,1.15.28,3.05,3.05,0,0,0,2.18-1,6,6,0,0,0,1.56-2.76l2.69-12.57h-4.76Zm30.43-13.51c-.88,0-1.86.94-2.83,2.72a24.46,24.46,0,0,0-2.22,5.9,5.56,5.56,0,0,0,2.43-1,8,8,0,0,0,2.39-2.72,7.08,7.08,0,0,0,.9-3.45C172.25,143.05,171.76,143.05,171.58,143.05Zm-43.09,0c-.93,0-1.9.9-2.88,2.7a22.06,22.06,0,0,0-2.14,5.9,5.93,5.93,0,0,0,2.4-1.05,8.08,8.08,0,0,0,2.39-2.7,7,7,0,0,0,.9-3.43C129.16,143.05,128.67,143.05,128.49,143.05Z"/><path class="cls-2" d="M115.47,131.08l-5.4,25.38a5.61,5.61,0,0,0-.19,1.5,1.72,1.72,0,0,0,.45,1.34,2.22,2.22,0,0,0,1.48.4,3.6,3.6,0,0,0,2.53-1.15,6.15,6.15,0,0,0,1.1-1.54c0-.08,0-.14,0-.23a23.43,23.43,0,0,1,1.27-7.14,16.6,16.6,0,0,1,4.14-6.74,9.89,9.89,0,0,1,7.28-2.84q5.17,0,5.17,4.51a8.46,8.46,0,0,1-1.5,4.84,11.15,11.15,0,0,1-4,3.54,12.71,12.71,0,0,1-5.31,1.53c-.06.94-.09,1.57-.09,1.88a4.57,4.57,0,0,0,.8,3.13,3.46,3.46,0,0,0,2.58.82,7.78,7.78,0,0,0,4.35-1.18,21,21,0,0,0,4-3.57l2.82-13.2h-1.55l.37-1.88h1.55l1.41-6.49,7-.94c-.53,2.48-1.07,4.95-1.6,7.43h5.78l1.41-6.49,7-.94-1.6,7.43h2.82l-.38,1.88h-2.82l-3,14.1A5.61,5.61,0,0,0,153,158a1.75,1.75,0,0,0,.44,1.34,2.24,2.24,0,0,0,1.48.4,3.6,3.6,0,0,0,2.54-1.15,6.17,6.17,0,0,0,1.06-1.44c0-.11,0-.21,0-.33a23.4,23.4,0,0,1,1.26-7.14,16.6,16.6,0,0,1,4.14-6.74,9.89,9.89,0,0,1,7.28-2.84q5.18,0,5.17,4.51a8.46,8.46,0,0,1-1.5,4.84,11,11,0,0,1-4,3.54,12.71,12.71,0,0,1-5.31,1.53q-.09,1-.09,1.41,0,3.9,2.91,3.9a6.64,6.64,0,0,0,2.82-.7,11.4,11.4,0,0,0,2.73-1.79q-1.27,7-8.13,7a7.56,7.56,0,0,1-5.36-1.81,5.69,5.69,0,0,1-1.46-2.4,8.7,8.7,0,0,1-2.3,2.4,9.77,9.77,0,0,1-5.4,1.81,4.87,4.87,0,0,1-3.64-1.41,4.93,4.93,0,0,1-1.26-2.73,8.94,8.94,0,0,1-2.24,2.33,9.8,9.8,0,0,1-5.41,1.81,4.87,4.87,0,0,1-3.64-1.41,5.82,5.82,0,0,1-1.39-4.23c0-.08,0-.18,0-.26-3.1,3.91-6.75,5.9-11,5.9a7.63,7.63,0,0,1-5.4-1.81,5.66,5.66,0,0,1-1.47-2.44,8.84,8.84,0,0,1-2.34,2.44,9.74,9.74,0,0,1-5.4,1.81,4.87,4.87,0,0,1-3.64-1.41,4.94,4.94,0,0,1-1.25-2.67,8.73,8.73,0,0,1-2.09,2.27A8.91,8.91,0,0,1,96,164.26a4.52,4.52,0,0,1-3.22-1.13,5.18,5.18,0,0,1-1.44-3.34A9.41,9.41,0,0,1,88,163.32a7.61,7.61,0,0,1-3.59.94,4.87,4.87,0,0,1-3.64-1.41,5.78,5.78,0,0,1-1.39-4.23,16.46,16.46,0,0,1,.38-3.06l1.41-6.67a18.42,18.42,0,0,1-4,1.13,21.13,21.13,0,0,1-1.93,7.47,12.63,12.63,0,0,1-4,4.93A9,9,0,0,1,66,164.16a8,8,0,0,1-5.5-1.78q-2-1.78-2-5.64a22.61,22.61,0,0,1,1.31-7.1A16.79,16.79,0,0,1,64,142.9a10.08,10.08,0,0,1,7.34-2.84q6,0,6,7.51v.05a1.87,1.87,0,0,0,.52,0,9.85,9.85,0,0,0,3.57-.82l.17-.09L83,140.48h6.77l-3.38,16a6.27,6.27,0,0,0-.15,1.31c0,1.29.48,1.93,1.41,1.93a2.87,2.87,0,0,0,2.26-1.11,8,8,0,0,0,1.5-3l3.2-15.08h6.77l-3.39,16a6,6,0,0,0-.18,1.5,1.72,1.72,0,0,0,.44,1.34,2.24,2.24,0,0,0,1.48.4,2.92,2.92,0,0,0,2.28-1.13,8.25,8.25,0,0,0,1.53-3l5-23.54,7-.94M142.4,159.7a3.58,3.58,0,0,0,2.53-1.15,6.62,6.62,0,0,0,1.7-3l2.82-13.2h-5.78q-1.51,7-3,14.1a5.61,5.61,0,0,0-.19,1.5,1.72,1.72,0,0,0,.45,1.34,2.22,2.22,0,0,0,1.48.4m23.49-7.47a6,6,0,0,0,3.36-1.18,8.45,8.45,0,0,0,2.54-2.89,7.58,7.58,0,0,0,1-3.69q0-1.92-1.17-1.92-1.65,0-3.27,3a25.19,25.19,0,0,0-2.42,6.7m-43,0a6.19,6.19,0,0,0,3.31-1.23,8.53,8.53,0,0,0,2.54-2.86,7.48,7.48,0,0,0,1-3.67q0-1.92-1.17-1.92c-1.13,0-2.24,1-3.32,3a22.5,22.5,0,0,0-2.32,6.72m-55,7.7a3.1,3.1,0,0,0,2.25-1.29,11.47,11.47,0,0,0,2-3.52,22.94,22.94,0,0,0,1.22-5c-.85-.19-1.27-.85-1.27-2a2.45,2.45,0,0,1,1.46-2.54,4.93,4.93,0,0,0-.47-2.14,1.45,1.45,0,0,0-1.32-.59c-1,0-2,.75-3,2.26a20,20,0,0,0-2.35,5.4,20.89,20.89,0,0,0-.89,5.55,6,6,0,0,0,.52,3,2.1,2.1,0,0,0,1.88.77m47.6-29.85h-.13l-7,.94a1,1,0,0,0-.84.78l-5,23.5a7.16,7.16,0,0,1-1.32,2.61,1.93,1.93,0,0,1-1.52.78c-.64,0-.81-.15-.81-.15s-.11-.19-.11-.59a4.79,4.79,0,0,1,.15-1.24s0,0,0-.06l3.38-16a1,1,0,0,0-1-1.21H94.56a1,1,0,0,0-1,.79l-3.19,15A7.17,7.17,0,0,1,89.1,158a1.89,1.89,0,0,1-1.5.75c-.18,0-.41,0-.41-.93a5.66,5.66,0,0,1,.13-1.11l3.38-16a1,1,0,0,0-.2-.84,1,1,0,0,0-.78-.37H83a1,1,0,0,0-1,.79L80.75,146a8.75,8.75,0,0,1-2.42.61c-.33-6.25-3.94-7.59-7-7.59a11.07,11.07,0,0,0-8,3.12,17.79,17.79,0,0,0-4.48,7.14,23.5,23.5,0,0,0-1.37,7.42c0,2.85.79,5,2.36,6.39a9,9,0,0,0,6.16,2,10,10,0,0,0,5.89-1.92,13.69,13.69,0,0,0,4.31-5.31,22,22,0,0,0,2-7.07,17.26,17.26,0,0,0,1.68-.43l-1,4.93a17,17,0,0,0-.4,3.26,6.78,6.78,0,0,0,1.67,4.93,5.89,5.89,0,0,0,4.36,1.71,8.57,8.57,0,0,0,4.06-1.06,8.42,8.42,0,0,0,2.45-2.08,5,5,0,0,0,1.19,1.74,5.49,5.49,0,0,0,3.91,1.4,9.84,9.84,0,0,0,5.72-2,6.92,6.92,0,0,0,1.14-1,5,5,0,0,0,.9,1.29,5.89,5.89,0,0,0,4.36,1.71,10.78,10.78,0,0,0,6-2,8.74,8.74,0,0,0,1.55-1.36,6.25,6.25,0,0,0,1,1.26,8.57,8.57,0,0,0,6.08,2.08,14,14,0,0,0,10.18-4.49,5.67,5.67,0,0,0,1.45,2.78,5.87,5.87,0,0,0,4.35,1.71,10.78,10.78,0,0,0,6-2A9,9,0,0,0,146,162.2a5.43,5.43,0,0,0,.94,1.35,5.89,5.89,0,0,0,4.36,1.71,10.78,10.78,0,0,0,6-2,8.05,8.05,0,0,0,1.52-1.33,6.33,6.33,0,0,0,1,1.23,8.5,8.5,0,0,0,6,2.08c5,0,8.18-2.69,9.11-7.78a1,1,0,0,0-.49-1,1,1,0,0,0-.49-.13,1,1,0,0,0-.66.25,10.39,10.39,0,0,1-2.49,1.63,5.64,5.64,0,0,1-2.4.61c-.62,0-1.91,0-1.91-2.9,0-.07,0-.22,0-.49a14.05,14.05,0,0,0,4.86-1.56,12.13,12.13,0,0,0,4.34-3.87,9.37,9.37,0,0,0,1.68-5.4c0-3.56-2.19-5.51-6.17-5.51a10.89,10.89,0,0,0-8,3.13,17.71,17.71,0,0,0-4.39,7.14,24.5,24.5,0,0,0-1.31,7.45v.1a4.6,4.6,0,0,1-.74,1,2.6,2.6,0,0,1-1.84.87c-.64,0-.81-.14-.81-.15s-.11-.19-.11-.59a4.9,4.9,0,0,1,.15-1.24.13.13,0,0,0,0-.06l2.84-13.3h2a1,1,0,0,0,1-.81l.38-1.88a1,1,0,0,0-.21-.83,1,1,0,0,0-.77-.36h-1.58l1.33-6.22a1,1,0,0,0-.24-.89,1,1,0,0,0-.73-.32h-.14l-7,.94a1,1,0,0,0-.85.78L150,135l-1,4.47h-3.74l.53-2.48.81-3.74a1,1,0,0,0-.25-.89,1,1,0,0,0-.73-.32h-.13l-7,.94a1,1,0,0,0-.84.78l-1.24,5.7h-.75a1,1,0,0,0-1,.8l-.37,1.88a1,1,0,0,0,.21.83,1,1,0,0,0,.77.37h.31l-2.5,11.73a19.49,19.49,0,0,1-3.59,3.2,6.84,6.84,0,0,1-3.81,1,2.73,2.73,0,0,1-1.86-.52c-.16-.16-.52-.72-.52-2.43,0-.14,0-.42,0-1a13.93,13.93,0,0,0,4.84-1.55A12.21,12.21,0,0,0,132.6,150a9.37,9.37,0,0,0,1.68-5.4c0-3.56-2.19-5.51-6.17-5.51a10.93,10.93,0,0,0-8,3.13,17.68,17.68,0,0,0-4.38,7.14,24.53,24.53,0,0,0-1.32,7.45,4.48,4.48,0,0,1-.78,1.05,2.6,2.6,0,0,1-1.83.87c-.65,0-.81-.14-.82-.15s-.11-.19-.11-.59a4.9,4.9,0,0,1,.15-1.24s0,0,0-.06l5.4-25.37a1,1,0,0,0-.25-.89,1,1,0,0,0-.73-.32Zm29,13.28h3.73l-1.16,5.44-1.39,6.52a5.62,5.62,0,0,1-1.43,2.51,2.6,2.6,0,0,1-1.83.87c-.65,0-.81-.14-.81-.15s-.12-.19-.12-.59a4.9,4.9,0,0,1,.15-1.24l0-.06,1.56-7.31,1.28-6ZM167.22,151a23.83,23.83,0,0,1,2-5c.86-1.59,1.71-2.46,2.39-2.46h0s.17.2.17.92a6.61,6.61,0,0,1-.84,3.21,7.5,7.5,0,0,1-2.24,2.56,5.14,5.14,0,0,1-1.45.75Zm-43.07,0a20.69,20.69,0,0,1,1.9-5c.86-1.58,1.73-2.44,2.44-2.44h0s.17.2.17.92a6.31,6.31,0,0,1-.84,3.18,7.52,7.52,0,0,1-2.24,2.54,6.06,6.06,0,0,1-1.43.77Zm-56.28,8c-.38,0-.87-.05-1.05-.33a5,5,0,0,1-.35-2.47,19.55,19.55,0,0,1,.86-5.27,18.87,18.87,0,0,1,2.22-5.14c.53-.82,1.34-1.8,2.17-1.8.15,0,.4,0,.47.13a2.42,2.42,0,0,1,.26,1,3.55,3.55,0,0,0-1.4,3.1,2.85,2.85,0,0,0,1.16,2.58,20.56,20.56,0,0,1-1,4A10.69,10.69,0,0,1,69.37,158a2.33,2.33,0,0,1-1.5,1Z"/></svg>